<svg xmlns="http://www.w3.org/2000/svg" xmlns:xlink="http://www.w3.org/1999/xlink" viewBox="0 0 691.09 807.37"><defs><style>.cls-1{fill:#c1c1c1;}.cls-2{fill:#a8a8a8;}.cls-3{fill:#8c8c8c;}.cls-4{fill:#757575;}.cls-5{fill:#565656;}.cls-6{fill:url(#linear-gradient);}.cls-7{fill:#ba3131;stroke:#702626;}.cls-7,.cls-8,.cls-9{stroke-miterlimit:10;}.cls-7,.cls-8{stroke-width:0.25px;}.cls-8{fill:#8e2626;stroke:#561e1e;}.cls-9{fill:#365677;stroke:#000;stroke-width:8px;}.cls-10{fill:#8fc3ea;}</style><linearGradient id="linear-gradient" x1="349.74" y1="927.2" x2="349.74" y2="812.59" gradientTransform="matrix(0.77, -0.64, 0.64, 0.77, -203.05, 301.89)" gradientUnits="userSpaceOnUse"><stop offset="0" stop-color="#fcee21" stop-opacity="0"/><stop offset="0.01" stop-color="#fce921" stop-opacity="0.03"/><stop offset="0.11" stop-color="#f9c822" stop-opacity="0.26"/><stop offset="0.2" stop-color="#f7aa22" stop-opacity="0.46"/><stop offset="0.3" stop-color="#f59223" stop-opacity="0.62"/><stop offset="0.4" stop-color="#f47e23" stop-opacity="0.76"/><stop offset="0.5" stop-color="#f26e24" stop-opacity="0.87"/><stop offset="0.6" stop-color="#f26324" stop-opacity="0.94"/><stop offset="0.71" stop-color="#f15c24" stop-opacity="0.99"/><stop offset="0.84" stop-color="#f15a24"/><stop offset="0.86" stop-color="#e9572a"/><stop offset="0.89" stop-color="#d4513b"/><stop offset="0.93" stop-color="#b14556"/><stop offset="0.98" stop-color="#80367c"/><stop offset="1" stop-color="#662d91"/></linearGradient></defs><g id="Layer_2" data-name="Layer 2"><g id="Layer_2-2" data-name="Layer 2"><polygon class="cls-1" points="608.4 517.34 691.09 617.51 647.65 653.37 502.74 477.8 608.4 517.34"/><path class="cls-1" d="M213.61,62,251,107.35l-31.93,26.36-.16.12c-14.62-17.61-51.52-59.58-88.5-82.24l.06-.1Z"/><path class="cls-2" d="M218.91,133.83c4.23,5,6.6,8.1,6.6,8.1l.1.11-20.76,17.14-23.64-28.64c-14.22-17.23-40.05-45.72-61.83-63.7S2.06,1,2.06,1L2,.85c7.29-6,78.47,20.91,126.68,49.67.58.35,1.18.7,1.77,1.07C167.39,74.25,204.29,116.22,218.91,133.83Z"/><path class="cls-2" d="M502.74,477.8,647.65,653.37,626.89,670.5l-422-511.32L225.61,142Z"/><path class="cls-3" d="M204.85,159.18l422,511.32L541,741.39,119,230.07Z"/><path class="cls-3" d="M181.21,130.54l23.64,28.64L119,230.07,95.32,201.43C81.1,184.2,58,153.44,44.5,128.65S2.06,1,2.06,1,97.57,48.86,119.38,66.84,167,113.31,181.21,130.54Z"/><path class="cls-4" d="M2.06,1S31,103.82,44.5,128.65s36.6,55.55,50.82,72.78L119,230.07,98.2,247.2s-2.58-2.95-6.81-8.11c-14.59-17.81-48.75-62-63.93-102.57-.23-.59-.44-1.19-.65-1.76C7.72,82-5.23,7,2.06,1Z"/><path class="cls-4" d="M119,230.07,541,741.39l-20.76,17.14L375.33,583,98.2,247.2Z"/><path class="cls-5" d="M22.06,220.14l5.4-83.62c15.18,40.56,49.34,84.76,63.93,102.57L59.45,265.45Z"/><polygon class="cls-5" points="375.33 582.96 520.24 758.53 476.81 794.38 394.12 694.2 375.33 582.96"/><polygon class="cls-6" points="541 741.39 641.1 807.37 672.7 781.3 626.89 670.5 541 741.39"/><path class="cls-7" d="M402.23,364.72l-2.74,4.76.35.42,4.52-2.59,2.81,3.41-12.4,7-3.67-4.45a7.6,7.6,0,0,1-1.13-1.77,4.84,4.84,0,0,1-.43-1.7,3.29,3.29,0,0,1,.31-1.55,3.78,3.78,0,0,1,1-1.32,4.8,4.8,0,0,1,2.74-1.2,4.22,4.22,0,0,1,2.63.75l2.67-5.75Zm-5.57,5.91a2.9,2.9,0,0,0-1.14-.91,1.07,1.07,0,0,0-1.09.23.88.88,0,0,0-.38.86,2.49,2.49,0,0,0,.56,1l.55.66,2.08-1.18Z"/><path class="cls-7" d="M390.3,350.28l-4.76,2.7,2.54,3.08,4.77-2.69,2.91,3.53-12.4,7-2.9-3.52,4.26-2.41-2.55-3.08-4.26,2.4L375,353.77l12.41-7Z"/><path class="cls-7" d="M373.26,338.69l5.09-2.89,2.91,3.53-5.09,2.89-4,8.12-3.26-3.94,2.39-3.93-5.25.46-3.56-4.31Z"/><path class="cls-7" d="M358.62,327.38a2.5,2.5,0,0,0,.06,1.08,2.89,2.89,0,0,0,.61,1.12,2,2,0,0,0,.82.62.78.78,0,0,0,.85-.12.68.68,0,0,0,.23-.68,5.16,5.16,0,0,0-.35-1.14,11.21,11.21,0,0,1-.51-1.68,5.13,5.13,0,0,1-.1-1.49,3.63,3.63,0,0,1,.39-1.3,3.73,3.73,0,0,1,.93-1.12,4.22,4.22,0,0,1,2.15-1,4.92,4.92,0,0,1,2.16.18,6.73,6.73,0,0,1,2,1,9.07,9.07,0,0,1,1.59,1.49,10.12,10.12,0,0,1,.95,1.37,10.52,10.52,0,0,1,.71,1.48,8.62,8.62,0,0,1,.42,1.52,5.47,5.47,0,0,1,.09,1.44l-4.22-.57a2.75,2.75,0,0,0,0-.76,4,4,0,0,0-.16-.78,5.7,5.7,0,0,0-.29-.72,3,3,0,0,0-.38-.59,2.14,2.14,0,0,0-.88-.71.71.71,0,0,0-.78.1.78.78,0,0,0-.26.67,4.2,4.2,0,0,0,.38,1.37,10.5,10.5,0,0,1,.47,1.44,4.75,4.75,0,0,1,.15,1.37,3.38,3.38,0,0,1-.34,1.28,3.79,3.79,0,0,1-1,1.17,4.57,4.57,0,0,1-1.84.95,4.88,4.88,0,0,1-2.05.05,6,6,0,0,1-2.08-.84,7.77,7.77,0,0,1-1.89-1.68,9.29,9.29,0,0,1-.85-1.23,9.5,9.5,0,0,1-.61-1.3,7.89,7.89,0,0,1-.35-1.28,4.25,4.25,0,0,1,0-1.17Z"/><path class="cls-8" d="M295,453.3l-2.74,4.75.36.43,4.51-2.6,2.82,3.41-12.41,7-3.67-4.45a7.55,7.55,0,0,1-1.12-1.77,4.49,4.49,0,0,1-.43-1.7,3.26,3.26,0,0,1,.3-1.55,3.75,3.75,0,0,1,1.06-1.32,4.77,4.77,0,0,1,2.74-1.2,4.13,4.13,0,0,1,2.62.75l2.68-5.75Zm-5.56,5.9a2.73,2.73,0,0,0-1.15-.9,1,1,0,0,0-1.08.23.85.85,0,0,0-.38.86,2.43,2.43,0,0,0,.56,1l.54.66,2.09-1.18Z"/><path class="cls-8" d="M283.1,438.85l-4.77,2.7,2.55,3.09,4.76-2.7,2.92,3.53-12.4,7-2.9-3.52,4.25-2.41L275,443.48l-4.25,2.41-2.93-3.54,12.4-7Z"/><path class="cls-8" d="M266.05,427.27l5.09-2.9,2.92,3.54L269,430.8l-4,8.12L261.7,435l2.38-3.93-5.25.45-3.56-4.31Z"/><path class="cls-8" d="M251.42,416a2.5,2.5,0,0,0,.06,1.08,3,3,0,0,0,.6,1.12,2.21,2.21,0,0,0,.82.62.78.78,0,0,0,.85-.12A.69.69,0,0,0,254,418a6.19,6.19,0,0,0-.36-1.15,10.55,10.55,0,0,1-.51-1.68,5,5,0,0,1-.09-1.48,3.37,3.37,0,0,1,.39-1.31,3.67,3.67,0,0,1,.93-1.11,4.29,4.29,0,0,1,2.15-1,4.86,4.86,0,0,1,2.15.18,6.64,6.64,0,0,1,2,1,8.73,8.73,0,0,1,1.59,1.49,10.42,10.42,0,0,1,1.66,2.85,7.78,7.78,0,0,1,.43,1.51,6,6,0,0,1,.09,1.45l-4.23-.57a2.75,2.75,0,0,0,0-.76,4,4,0,0,0-.17-.78,4.51,4.51,0,0,0-.29-.72,3.08,3.08,0,0,0-.37-.6,2.48,2.48,0,0,0-.88-.71.73.73,0,0,0-.78.11.82.82,0,0,0-.27.67,4.43,4.43,0,0,0,.38,1.36,10.69,10.69,0,0,1,.48,1.45,4.38,4.38,0,0,1,.14,1.37,3,3,0,0,1-.34,1.27,3.64,3.64,0,0,1-1,1.18,4.76,4.76,0,0,1-1.84.95,4.92,4.92,0,0,1-2.06.05,6.07,6.07,0,0,1-2.07-.84,7.63,7.63,0,0,1-1.9-1.68,9.29,9.29,0,0,1-.85-1.23,10,10,0,0,1-.6-1.3,7,7,0,0,1-.35-1.28,3.89,3.89,0,0,1,0-1.17Z"/><circle class="cls-9" cx="179.31" cy="215.71" r="42.06"/><path class="cls-10" d="M150.35,197.79A40.24,40.24,0,0,1,207,203.21a39.71,39.71,0,0,1,5.54,8.82,34.32,34.32,0,0,0-64.38-12.28C148.87,199.08,149.59,198.42,150.35,197.79Z"/></g></g></svg>